<svg xmlns="http://www.w3.org/2000/svg" viewBox="0 0 400 400" role="img" aria-labelledby="title desc">
  <title id="title">cook-cook illustration logo</title>
  <desc id="desc">A warm sticker-style cooking pot logo with thick ink outlines.</desc>
  <defs>
    <pattern id="paper-grid" width="28" height="28" patternUnits="userSpaceOnUse">
      <path d="M28 0H0V28" fill="none" stroke="#2f2f2d" stroke-opacity=".045" stroke-width="2"/>
    </pattern>
    <filter id="grain" x="-20%" y="-20%" width="140%" height="140%">
      <feTurbulence type="fractalNoise" baseFrequency=".9" numOctaves="2" seed="8" result="noise"/>
      <feColorMatrix in="noise" type="saturate" values="0"/>
      <feComponentTransfer>
        <feFuncA type="table" tableValues="0 .055"/>
      </feComponentTransfer>
      <feBlend in="SourceGraphic" mode="multiply"/>
    </filter>
  </defs>

  <rect width="400" height="400" rx="74" fill="#fff6f7"/>
  <rect width="400" height="400" rx="74" fill="url(#paper-grid)"/>

  <g transform="translate(9 11)" opacity=".98">
    <path d="M83 112c0-36 27-62 65-62h102c39 0 68 27 68 64v113c0 41-30 71-72 71H150c-40 0-67-28-67-69Z" fill="#2f2f2d"/>
  </g>

  <g filter="url(#grain)">
    <path d="M72 108c0-36 27-62 65-62h102c39 0 68 27 68 64v113c0 41-30 71-72 71h-96c-40 0-67-28-67-69Z" fill="#fffef9" stroke="#2f2f2d" stroke-width="10" stroke-linejoin="round"/>

    <path d="M129 90c-10-5-16-14-16-25 0-18 14-31 33-31 7 0 14 2 20 6 8-17 24-28 45-28 25 0 45 17 49 40 19 1 34 16 34 35 0 21-17 37-39 37H147c-14 0-26-7-33-18 5-7 10-12 15-16Z" fill="#fffdfa" stroke="#2f2f2d" stroke-width="9" stroke-linecap="round" stroke-linejoin="round"/>
    <path d="M153 68c9-10 23-13 35-6M211 55c12-7 28-3 36 8M251 82c9-2 20 1 27 9" fill="none" stroke="#dfead7" stroke-width="5" stroke-linecap="round"/>

    <path d="M119 186c-10-11-14-27-9-42 8-23 31-33 56-24 6 2 12 6 17 10 15-11 35-15 56-7 23 8 38 27 40 48 19 1 35 13 40 30 7 25-9 51-37 60-42 15-112 13-149-5-19-9-31-24-35-42-3-12 4-23 21-28Z" fill="#83c63f" stroke="#2f2f2d" stroke-width="9" stroke-linecap="round" stroke-linejoin="round"/>
    <path d="M137 177c40 22 99 23 145 2" fill="none" stroke="#f0ffd9" stroke-width="12" stroke-linecap="round" opacity=".72"/>

    <path d="M96 209c14 35 48 60 94 60 50 0 89-25 105-61 6-14-6-25-21-20-47 14-111 14-157 0-15-4-27 7-21 21Z" fill="#3f7df0" stroke="#2f2f2d" stroke-width="10" stroke-linecap="round" stroke-linejoin="round"/>
    <path d="M111 205c48 21 120 21 168 0" fill="none" stroke="#eaf4ff" stroke-width="10" stroke-linecap="round" opacity=".65"/>
    <path d="M126 231c35 17 91 18 131 3" fill="none" stroke="#2f2f2d" stroke-opacity=".18" stroke-width="7" stroke-linecap="round"/>

    <path d="M111 214c-12-1-21-4-26-11-6-8-3-19 7-24 12-7 29-3 39 8" fill="#ffd95c" stroke="#2f2f2d" stroke-width="8" stroke-linecap="round" stroke-linejoin="round"/>
    <path d="M286 214c13-1 24-5 30-13 6-9 2-20-8-25-13-6-31-1-41 11" fill="#ffd95c" stroke="#2f2f2d" stroke-width="8" stroke-linecap="round" stroke-linejoin="round"/>

    <path d="M137 271h111" fill="none" stroke="#2f2f2d" stroke-width="10" stroke-linecap="round"/>
    <path d="M150 271l-13 32M235 271l14 32" fill="none" stroke="#2f2f2d" stroke-width="9" stroke-linecap="round"/>

    <circle cx="158" cy="214" r="8" fill="#2f2f2d"/>
    <circle cx="232" cy="214" r="8" fill="#2f2f2d"/>
    <path d="M184 231c9 8 24 8 33 0" fill="none" stroke="#2f2f2d" stroke-width="8" stroke-linecap="round"/>
    <circle cx="137" cy="226" r="10" fill="#ffe8e3" opacity=".85"/>
    <circle cx="253" cy="226" r="10" fill="#ffe8e3" opacity=".85"/>

    <path d="M294 123c25-16 52-12 65 6-10 23-37 33-64 23 1-10 1-19-1-29Z" fill="#4b8e2e" stroke="#2f2f2d" stroke-width="8" stroke-linecap="round" stroke-linejoin="round"/>
    <path d="M309 141c15-2 29-7 42-14" fill="none" stroke="#ecffd9" stroke-width="5" stroke-linecap="round"/>

    <path d="M71 141c-17-18-19-45-4-61 24 7 38 31 33 59-10 3-20 3-29 2Z" fill="#e45f51" stroke="#2f2f2d" stroke-width="8" stroke-linecap="round" stroke-linejoin="round"/>
    <path d="M82 127c-1-14-6-28-14-41" fill="none" stroke="#ffe8e3" stroke-width="5" stroke-linecap="round"/>

    <path d="M103 318c47 20 132 22 182 4" fill="none" stroke="#2f2f2d" stroke-width="8" stroke-linecap="round" opacity=".14"/>
  </g>
</svg>
